0
SECTION
2
HEADER
9
$INSUNITS
70
4
9
$ACADVER
1
AC1014
9
$HANDSEED
5
FFFF
0
ENDSEC
0
SECTION
2
TABLES
0
TABLE
2
VPORT
5
8
100
AcDbSymbolTable
0
ENDTAB
0
TABLE
2
LTYPE
5
5
100
AcDbSymbolTable
0
LTYPE
5
14
100
AcDbSymbolTableRecord
100
AcDbLinetypeTableRecord
2
BYBLOCK
70
0
0
LTYPE
5
15
100
AcDbSymbolTableRecord
100
AcDbLinetypeTableRecord
2
BYLAYER
70
0
0
LTYPE
5
16
100
AcDbSymbolTableRecord
100
AcDbLinetypeTableRecord
2
DASHED
70
0
3
Dashed __ __ __ __ __ __ __ __ __ __ __ __ __ _
72
65
73
2
40
0.75
49
0.5
74
0
49
-0.25
74
0
0
ENDTAB
0
TABLE
2
LAYER
5
2
100
AcDbSymbolTable
70
2
0
LAYER
5
50
100
AcDbSymbolTableRecord
100
AcDbLayerTableRecord
2
0
70
0
62
7
6
CONTINUOUS
0
ENDTAB
0
TABLE
2
STYLE
5
3
100
AcDbSymbolTable
70
1
0
STYLE
5
11
100
AcDbSymbolTableRecord
100
AcDbTextStyleTableRecord
2
STANDARD
70
0
0
ENDTAB
0
TABLE
2
VIEW
5
6
100
AcDbSymbolTable
70
0
0
ENDTAB
0
TABLE
2
UCS
5
7
100
AcDbSymbolTable
70
0
0
ENDTAB
0
TABLE
2
APPID
5
9
100
AcDbSymbolTable
70
2
0
APPID
5
12
100
AcDbSymbolTableRecord
100
AcDbRegAppTableRecord
2
ACAD
70
0
0
ENDTAB
0
TABLE
2
DIMSTYLE
5
A
100
AcDbSymbolTable
70
1
0
ENDTAB
0
TABLE
2
BLOCK_RECORD
5
1
100
AcDbSymbolTable
70
1
0
BLOCK_RECORD
5
1F
100
AcDbSymbolTableRecord
100
AcDbBlockTableRecord
2
*MODEL_SPACE
0
BLOCK_RECORD
5
1B
100
AcDbSymbolTableRecord
100
AcDbBlockTableRecord
2
*PAPER_SPACE
0
ENDTAB
0
ENDSEC
0
SECTION
2
BLOCKS
0
BLOCK
5
20
100
AcDbEntity
100
AcDbBlockBegin
2
*MODEL_SPACE
0
ENDBLK
5
21
100
AcDbEntity
100
AcDbBlockEnd
0
BLOCK
5
1C
100
AcDbEntity
100
AcDbBlockBegin
2
*PAPER_SPACE
0
ENDBLK
5
1D
100
AcDbEntity
100
AcDbBlockEnd
0
ENDSEC
0
SECTION
2
ENTITIES
0
POINT
5
100
100
AcDbEntity
8
0
100
AcDbPoint
10
0
20
0
30
0
0
POINT
5
101
100
AcDbEntity
8
0
100
AcDbPoint
10
0
20
15
30
0
0
CIRCLE
5
102
100
AcDbEntity
8
0
100
AcDbCircle
10
0
20
0
30
0
40
15
210
0
220
0
230
1
6
DASHED
0
LWPOLYLINE
5
103
100
AcDbEntity
8
0
100
AcDbPolyline
90
10
70
1
43
0.0
10
2.3776412907378841
20
15.772542485937368
10
0.56128497072448169
20
15.772542485937368
10
0
20
17.5
10
-0.56128497072448169
20
15.772542485937368
10
-2.3776412907378837
20
15.772542485937368
10
-0.90817816000670204
20
14.704915028125264
10
-1.469463130731183
20
12.977457514062632
10
-2.7755575615628914e-16
20
14.045084971874736
10
1.469463130731183
20
12.977457514062632
10
0.90817816000670271
20
14.704915028125264
0
LWPOLYLINE
5
104
100
AcDbEntity
8
0
100
AcDbPolyline
90
10
70
1
43
0.0
10
-0.90817816000670204
20
14.704915028125264
10
-1.469463130731183
20
12.977457514062632
10
-2.7755575615628914e-16
20
14.045084971874736
10
1.469463130731183
20
12.977457514062632
10
0.90817816000670271
20
14.704915028125264
10
2.3776412907378841
20
15.772542485937368
10
0.56128497072448169
20
15.772542485937368
10
0
20
17.5
10
-0.56128497072448169
20
15.772542485937368
10
-2.3776412907378837
20
15.772542485937368
0
LWPOLYLINE
5
105
100
AcDbEntity
8
0
100
AcDbPolyline
90
10
70
1
43
0.0
10
-7.5
20
15.489999999999998
10
-6.9387150292755182
20
13.762542485937368
10
-5.1223587092621159
20
13.762542485937368
10
-6.5918218399932975
20
12.694915028125262
10
-6.0305368692688166
20
10.96745751406263
10
-7.5
20
12.035084971874737
10
-8.9694631307311834
20
10.96745751406263
10
-8.4081781600067025
20
12.694915028125262
10
-9.8776412907378841
20
13.762542485937368
10
-8.0612849707244809
20
13.762542485937368
0
LWPOLYLINE
5
106
100
AcDbEntity
8
0
100
AcDbPolyline
90
10
70
1
43
0.0
10
-15.367641290737883
20
8.2725424859373682
10
-13.898178160006701
20
7.2049150281252619
10
-14.459463130731184
20
5.47745751406263
10
-12.989999999999998
20
6.5450849718747364
10
-11.520536869268817
20
5.47745751406263
10
-12.081821839993296
20
7.2049150281252619
10
-10.612358709262114
20
8.2725424859373682
10
-12.428715029275516
20
8.2725424859373682
10
-12.989999999999998
20
9.9999999999999982
10
-13.551284970724481
20
8.2725424859373682
0
LWPOLYLINE
5
107
100
AcDbEntity
8
0
100
AcDbPolyline
90
10
70
1
43
0.0
10
-15.367641290737883
20
8.2725424859373682
10
-13.898178160006701
20
7.2049150281252619
10
-14.459463130731184
20
5.47745751406263
10
-12.989999999999998
20
6.5450849718747364
10
-11.520536869268817
20
5.47745751406263
10
-12.081821839993296
20
7.2049150281252619
10
-10.612358709262114
20
8.2725424859373682
10
-12.428715029275516
20
8.2725424859373682
10
-12.989999999999998
20
9.9999999999999982
10
-13.551284970724481
20
8.2725424859373682
0
LWPOLYLINE
5
108
100
AcDbEntity
8
0
100
AcDbPolyline
90
10
70
1
43
0.0
10
-14.091821839993298
20
-0.29508497187473837
10
-13.530536869268817
20
-2.02254248593737
10
-15
20
-0.95491502812526385
10
-16.469463130731185
20
-2.02254248593737
10
-15.908178160006701
20
-0.29508497187473837
10
-17.377641290737884
20
0.77254248593736752
10
-15.561284970724483
20
0.77254248593736752
10
-15
20
2.4999999999999991
10
-14.438715029275517
20
0.77254248593736752
10
-12.622358709262116
20
0.77254248593736752
0
LWPOLYLINE
5
109
100
AcDbEntity
8
0
100
AcDbPolyline
90
10
70
1
43
0.0
10
-12.081821839993296
20
-7.7950849718747381
10
-11.520536869268817
20
-9.52254248593737
10
-12.989999999999998
20
-8.4549150281252636
10
-14.459463130731184
20
-9.52254248593737
10
-13.898178160006701
20
-7.7950849718747381
10
-15.367641290737883
20
-6.7274575140626327
10
-13.551284970724481
20
-6.7274575140626327
10
-12.989999999999998
20
-5.0000000000000009
10
-12.428715029275516
20
-6.7274575140626327
10
-10.612358709262114
20
-6.7274575140626327
0
LWPOLYLINE
5
110
100
AcDbEntity
8
0
100
AcDbPolyline
90
10
70
1
43
0.0
10
-7.4999999999999991
20
-13.944915028125262
10
-6.0305368692688157
20
-15.01254248593737
10
-6.5918218399932957
20
-13.285084971874737
10
-5.122358709262115
20
-12.217457514062634
10
-6.9387150292755164
20
-12.217457514062634
10
-7.4999999999999991
20
-10.489999999999998
10
-8.0612849707244809
20
-12.217457514062634
10
-9.8776412907378823
20
-12.217457514062634
10
-8.4081781600066989
20
-13.285084971874737
10
-8.9694631307311816
20
-15.01254248593737
0
LWPOLYLINE
5
111
100
AcDbEntity
8
0
100
AcDbPolyline
90
10
70
1
43
0.0
10
1.1102230246251565e-15
20
-12.5
10
0.5612849707244838
20
-14.227457514062634
10
2.377641290737885
20
-14.227457514062634
10
0.90817816000670404
20
-15.295084971874736
10
1.4694631307311845
20
-17.022542485937372
10
1.1102230246251565e-15
20
-15.954915028125264
10
-1.4694631307311823
20
-17.022542485937372
10
-0.9081781600066996
20
-15.295084971874736
10
-2.3776412907378832
20
-14.227457514062634
10
-0.56128497072448158
20
-14.227457514062634
0
LINE
5
112
100
AcDbEntity
8
0
100
AcDbLine
10
-15.000000223517418
20
0
30
0
11
15
21
-3.3306690738754696e-15
31
0
6
DASHED
0
LINE
5
113
100
AcDbEntity
8
0
100
AcDbLine
10
0
20
-15.000000223517418
30
0
11
0
21
15
31
0
6
DASHED
0
LWPOLYLINE
5
114
100
AcDbEntity
8
0
100
AcDbPolyline
90
10
70
1
43
0.0
10
7.5
20
12.035084971874737
10
6.0305368692688166
20
10.967457514062628
10
6.5918218399932975
20
12.694915028125262
10
5.1223587092621159
20
13.76254248593737
10
6.9387150292755182
20
13.76254248593737
10
7.5
20
15.489999999999998
10
8.0612849707244809
20
13.76254248593737
10
9.8776412907378841
20
13.76254248593737
10
8.4081781600067025
20
12.694915028125262
10
8.9694631307311834
20
10.967457514062628
0
LWPOLYLINE
5
115
100
AcDbEntity
8
0
100
AcDbPolyline
90
10
70
1
43
0.0
10
12.989999999999998
20
6.5450849718747373
10
11.520536869268817
20
5.4774575140626292
10
12.081821839993296
20
7.2049150281252627
10
10.612358709262114
20
8.2725424859373664
10
12.428715029275516
20
8.2725424859373664
10
12.989999999999998
20
10
10
13.551284970724481
20
8.2725424859373664
10
15.367641290737883
20
8.2725424859373664
10
13.898178160006701
20
7.2049150281252627
10
14.459463130731184
20
5.4774575140626292
0
LWPOLYLINE
5
116
100
AcDbEntity
8
0
100
AcDbPolyline
90
10
70
1
43
0.0
10
15
20
-0.95491502812526274
10
13.530536869268817
20
-2.0225424859373708
10
14.091821839993298
20
-0.29508497187473726
10
12.622358709262116
20
0.77254248593736641
10
14.438715029275517
20
0.77254248593736641
10
15
20
2.5
10
15.561284970724483
20
0.77254248593736641
10
17.377641290737884
20
0.77254248593736641
10
15.908178160006701
20
-0.29508497187473726
10
16.469463130731185
20
-2.0225424859373708
0
LWPOLYLINE
5
117
100
AcDbEntity
8
0
100
AcDbPolyline
90
10
70
1
43
0.0
10
12.989999999999998
20
-8.4549150281252636
10
11.520536869268817
20
-9.52254248593737
10
12.081821839993296
20
-7.7950849718747381
10
10.612358709262114
20
-6.7274575140626327
10
12.428715029275516
20
-6.7274575140626327
10
12.989999999999998
20
-5
10
13.551284970724481
20
-6.7274575140626327
10
15.367641290737883
20
-6.7274575140626327
10
13.898178160006701
20
-7.7950849718747381
10
14.459463130731184
20
-9.52254248593737
0
LWPOLYLINE
5
118
100
AcDbEntity
8
0
100
AcDbPolyline
90
10
70
1
43
0.0
10
7.4999999999999991
20
-13.944915028125262
10
6.0305368692688157
20
-15.01254248593737
10
6.5918218399932957
20
-13.285084971874737
10
5.122358709262115
20
-12.217457514062634
10
6.9387150292755164
20
-12.217457514062634
10
7.4999999999999991
20
-10.489999999999998
10
8.0612849707244809
20
-12.217457514062634
10
9.8776412907378823
20
-12.217457514062634
10
8.4081781600066989
20
-13.285084971874737
10
8.9694631307311816
20
-15.01254248593737
0
LINE
5
119
100
AcDbEntity
8
0
100
AcDbLine
10
0
20
28.000000417232513
30
0
11
-22.5
21
28.000000417232513
31
0
6
DASHED
0
LINE
5
120
100
AcDbEntity
8
0
100
AcDbLine
10
0
20
15
30
0
11
2.2204460492503131e-15
21
34.979109147906478
31
0
6
DASHED
0
LINE
5
121
100
AcDbEntity
8
0
100
AcDbLine
10
0
20
-15.000000223517418
30
0
11
0
21
-32.000000223517418
31
0
6
DASHED
0
LINE
5
122
100
AcDbEntity
8
0
100
AcDbLine
10
0
20
-52.000000223517418
30
0
11
0
21
-69.000000223517418
31
0
6
DASHED
0
LINE
5
123
100
AcDbEntity
8
0
100
AcDbLine
10
-17.75
20
-73.500000223517418
30
0
11
37.096549782132286
21
-73.500000223517375
31
0
0
ARC
5
124
100
AcDbEntity
8
0
100
AcDbCircle
10
-17.75
20
-64.250000223517418
30
0
40
9.2500000000000036
210
0
220
0
230
1
100
AcDbArc
50
180
51
270
0
LINE
5
125
100
AcDbEntity
8
0
100
AcDbLine
10
-26.999999999999989
20
27.250000000000007
30
0
11
-27
21
-64.250000223517461
31
0
0
ARC
5
126
100
AcDbEntity
8
0
100
AcDbCircle
10
-17.749999999999993
20
27.250000000000011
30
0
40
9.2499999999999929
210
0
220
-0
230
1
100
AcDbArc
50
89.999999999999986
51
180
0
LINE
5
127
100
AcDbEntity
8
0
100
AcDbLine
10
-17.749999999999989
20
36.5
30
0
11
37.096549782132286
21
36.499999999999986
31
0
0
LINE
5
128
100
AcDbEntity
8
0
100
AcDbLine
10
-18.35796290978443
20
-69.000000223517418
30
0
11
37.096549782132286
21
-69.000000223517389
31
0
0
ARC
5
129
100
AcDbEntity
8
0
100
AcDbCircle
10
-17.75
20
-64.250000223517418
30
0
40
4.7500000000000009
210
0
220
0
230
1
100
AcDbArc
50
180
51
270
0
LINE
5
130
100
AcDbEntity
8
0
100
AcDbLine
10
-22.499999999999986
20
27.250000000000007
30
0
11
-22.5
21
-64.250000223517446
31
0
0
ARC
5
131
100
AcDbEntity
8
0
100
AcDbCircle
10
-17.749999999999993
20
27.250000000000011
30
0
40
4.749999999999992
210
0
220
-0
230
1
100
AcDbArc
50
89.999999999999972
51
180
0
LINE
5
132
100
AcDbEntity
8
0
100
AcDbLine
10
-17.749999999999989
20
32
30
0
11
37.096549782132286
21
32.000000000000014
31
0
0
LWPOLYLINE
5
133
100
AcDbEntity
8
0
100
AcDbPolyline
90
6
70
1
43
0.0
10
7.5
20
-39.992860352758086
10
7.5
20
-44.000000223517432
42
-0.41421356237309631
10
-0.500000000000006
20
-52.000000223517418
10
-7.5
20
-52.000000223517418
10
-7.5
20
-31.992860352758086
10
-0.50000000000000278
20
-31.992860352758086
42
-0.41421356237309509
0
LWPOLYLINE
5
134
100
AcDbEntity
8
0
100
AcDbPolyline
90
6
70
1
43
0.0
10
-4.5
20
-49.000000223517411
10
-0.50000000000001099
20
-49.000000223517418
42
0.41421356237309492
10
4.5000000000000044
20
-44.000000223517418
10
4.5
20
-39.992860352758086
42
0.41421356237309503
10
-0.50000000000000044
20
-34.992860352758093
10
-4.5
20
-34.992860352758086
0
LINE
5
135
100
AcDbEntity
8
0
100
AcDbLine
10
0
20
23.000000342726707
30
0
11
22.5
21
23.000000342726707
31
0
6
DASHED
0
LINE
5
136
100
AcDbEntity
8
0
100
AcDbLine
10
22.5
20
32.000000000000014
30
0
11
22.5
21
-69.000000223517404
31
0
0
ENDSEC
0
SECTION
2
OBJECTS
0
DICTIONARY
5
C
100
AcDbDictionary
3
ACAD_GROUP
350
D
3
ACAD_MLINESTYLE
350
17
0
DICTIONARY
5
D
100
AcDbDictionary
0
DICTIONARY
5
1A
330
C
100
AcDbDictionary
0
DICTIONARY
5
17
100
AcDbDictionary
0
ENDSEC
0
EOF
